<svg width="128" height="128" xmlns="http://www.w3.org/2000/svg">
 <!-- Created with Method Draw - http://github.com/duopixel/Method-Draw/ -->
 <defs>
  <linearGradient id="svg_6" x1="0.285156" y1="0.261719" x2="1" y2="0" spreadMethod="pad">
   <stop stop-color="#ff5656" offset="0"/>
   <stop stop-color="#F4005D" offset="1"/>
  </linearGradient>
 </defs>
 <g>
  <title>background</title>
  <rect x="-1" y="-1" width="130" height="130" id="canvas_background" fill="none"/>
  <g id="canvasGrid" display="none">
   <rect id="svg_2" width="100%" height="100%" x="0" y="0" stroke-width="0" fill="url(#gridpattern)"/>
  </g>
 </g>
 <g>
  <title>Layer 1</title>
  <rect stroke="null" fill="url(#svg_6)" stroke-width="1.5" x="0.999996" y="0.999996" width="126.000008" height="126.000008" id="svg_1" rx="10"/>
  <path id="svg_4" d="m11.80027,15.60024l10.19962,97.19919l14.39993,-96.39951l15.99991,95.59951l12.39994,-78.7996l11.59994,51.19974l15.59992,-47.19976l9.59996,42.39979l13.19993,-29.19985" stroke-width="0" stroke="#000000" fill="none"/>
  <path id="svg_5" d="m11.80027,15.20024l10.19962,97.19919l14.39993,-96.39951l15.99991,95.59951l12.39994,-78.7996l11.59994,51.19974l15.59992,-47.19976l9.59996,42.39979l13.19993,-29.19985" stroke-width="0" stroke="#000000" fill="none"/>
  <path id="svg_7" d="m11.80027,14.80024l10.19962,97.19919l14.39993,-96.39951l15.99991,95.59951l12.39994,-78.7996l11.59994,51.19974l15.59992,-47.19976l9.59996,42.39979l13.19993,-29.19985" stroke-width="0" stroke="#000000" fill="none"/>
  <path id="svg_8" d="m11.80027,15.20024l10.19962,97.19919l14.39993,-96.39951l15.99991,95.59951l12.39994,-78.7996l11.59994,51.19974l15.59992,-47.19976l9.59996,42.39979l13.19993,-29.19985" stroke-width="0" stroke="#000000" fill="none"/>
  <path id="svg_10" d="m14.200258,21.200216l8.999625,82.799258l18.399907,-70.399644l7.99996,57.999707l18.399907,-43.199781l12.799935,51.999737l13.999929,-35.199822l11.999939,36.799814l10.799945,-14.799925" fill-opacity="null" stroke-opacity="null" stroke-width="8" stroke="#ffffff" fill="none"/>
 </g>
</svg>